<svg width="64" height="65" viewBox="0 0 64 65" fill="none" xmlns="http://www.w3.org/2000/svg">
<path d="M47.5 22.713C54.2425 22.7502 57.8943 23.0509 60.275 25.4316C62.9999 28.1565 62.9999 32.5399 62.9999 41.3067V44.4067C62.9999 53.1766 62.9999 57.56 60.275 60.2849C57.5533 63.0067 53.1668 63.0067 44.4 63.0067H19.6C10.8332 63.0067 6.44676 63.0067 3.72496 60.2849C1.00007 57.5569 1.00007 53.1766 1.00007 44.4067V41.3067C1.00007 32.5399 1.00007 28.1565 3.72496 25.4316C6.10576 23.0509 9.75755 22.7502 16.5 22.713" stroke="#EFE5FF" stroke-width="2" stroke-linecap="round"/>
<path d="M32 41.3V1.00007M32 1.00007L41.3 11.85M32 1.00007L22.7 11.85" stroke="#EFE5FF" stroke-width="2" stroke-linecap="round" stroke-linejoin="round"/>
</svg>
